<?xml version="1.0" encoding="UTF-8"?>
<svg id="Layer_2" data-name="Layer 2" xmlns="http://www.w3.org/2000/svg" viewBox="0 0 663.34 237.72">
  <g id="Layer_1-2" data-name="Layer 1">
    <g>
      <path d="M147.44,3.81H58.2C35.52,26.55,22.74,39.33,0,62.02l58.2.16h89.39c16.27,0,29.52,13.19,29.52,29.52,0,8.14-3.34,15.49-8.66,20.86-5.32,5.32-12.73,8.6-20.86,8.6h-31.03l-58.36,58.2V62.17L0,120.27v117.45c22.74-22.69,35.52-35.46,58.2-58.2h89.23c24.25,0,46.26-9.8,62.11-25.71,15.91-15.91,25.71-37.86,25.71-62.11,0-48.55-39.27-87.88-87.82-87.88Z"/>
      <g id="_7uU7Wz" data-name="7uU7Wz">
        <g>
          <path d="M324.87,37.97c-7.14-21.64-39.58-22.63-47.82-1.36l-2.35,7.56v-21.33h-14.97v74.27h14.97v-38.33l3.96,10.07c10.27,17.63,38.12,17.47,45.74-2.5,3.13-8.14,3.18-20.08.47-28.37ZM274.7,50.75c.52-9.28,7.09-14.6,16.01-15.44,10.95-1.04,20.86,4.12,21.07,16.17.42,22.22-38.44,21.8-37.08-.73Z"/>
          <path d="M381.72,24.99c-13.87-4.43-44.75-4.02-47.46,14.92-.16,1.04-.52,3.29.16,3.91h13.66c-.37-7.09,8.45-9.02,14.03-9.39,7.82-.52,21.75.26,20.39,11.27l-29.31,1.51c-8.14.89-19.51,5.42-20.44,14.76-2.5,24.98,40.31,26.65,48.61,6.68l1.56-5.01v17.26h14.6v-35.41c0-9.6-7.04-17.68-15.8-20.5ZM376.4,68.22c-6.36,3.23-19.14,5.01-25.29.83-5.16-3.49-3.86-9.18,2.03-10.64,9.7-2.24,19.87-1.83,29.78-2.24.63,6.15-1.1,9.34-6.52,12.05Z"/>
          <path d="M275.06,111.82l17.41,55.04,19.65-55.04h14.98l-24.39,70.52c-2.32,5.31-9.7,10.35-15.48,10.35h-20.41v-13.1h15.54c.54,0,3.54-.78,4.19-1.05,3.71-1.52,4.6-7.11,5.73-10.56h-14.6l-17.97-56.16h15.35Z"/>
          <path d="M357,111.2c-20.08,1.46-30.46,12.57-28.74,33.01,2.66,32.65,59.19,34.21,65.03,4.02,5.11-26.49-11.37-38.85-36.3-37.03ZM378.59,144.78c-3.29,15.39-30.77,15.39-34.73,2.14-3.55-11.73,2.5-21.12,14.65-22.27,13.3-1.25,23.16,5.89,20.08,20.13Z"/>
          <path d="M576.85,42.68l.93-4.5c3-10.89,11.95-19.17,23.86-16.74,11.54,2.36,17.26,13.65,17.89,24.61l1.23-7.19c3.74-13.5,14.37-20.49,28.35-16.96,7.96,2.01,14.22,9.57,14.22,17.98v41h-15.35v-35.01c0-1.44-1.69-5.14-2.62-6.36-6.13-8.11-19.5-5.11-24.02,3.31-.29.55-1.81,3.95-1.81,4.18v33.89h-15.35v-36.13c0-.61-1.17-3.33-1.57-4.05-4.98-8.99-18.67-6.77-23.67,1.27-.57.91-2.09,4.15-2.09,5.02v33.89h-15.35V22.84h15.35v19.84Z"/>
          <path d="M527.42,131.29l.93-4.5c3-10.89,11.95-19.17,23.86-16.74,11.54,2.36,17.26,13.65,17.89,24.61l1.23-7.19c3.74-13.5,14.37-20.49,28.35-16.96,7.96,2.01,14.22,9.57,14.22,17.98v41h-15.35v-35.01c0-1.44-1.69-5.14-2.62-6.36-6.13-8.11-19.5-5.11-24.02,3.31-.29.55-1.81,3.95-1.81,4.18v33.89h-15.35v-36.13c0-.61-1.17-3.33-1.57-4.05-4.98-8.99-18.67-6.77-23.67,1.27-.57.91-2.09,4.15-2.09,5.02v33.89h-15.35v-58.04h15.35v19.84Z"/>
          <path d="M509.08,25.46v30.89c0,.46,1.17,3.5,1.49,4.13,5.05,9.95,21.51,9.04,28.03,1.05.86-1.05,2.69-4.31,2.69-5.55v-30.52h14.23v53.92h-14.23v-19.1l-1.93,7.25c-6.93,18.31-36.73,17.64-43.11-.59-.39-1.11-1.4-4.37-1.4-5.34V25.46h14.23Z"/>
          <path d="M459.65,114.07v30.89c0,.46,1.17,3.5,1.49,4.13,5.05,9.95,21.51,9.04,28.03,1.05.86-1.05,2.69-4.31,2.69-5.55v-30.52h14.23v53.92h-14.23v-19.1l-1.93,7.25c-6.93,18.31-36.73,17.64-43.11-.59-.39-1.11-1.4-4.37-1.4-5.34v-36.13h14.23Z"/>
          <path d="M489.23,0v13.48h-18.91c-.6,0-3.1.74-3.85,1.02-4.05,1.49-3.64,6.25.04,8.03.86.42,4.5,1.43,5.31,1.43h17.41v12.73h-12.36v44.18h-14.98v-44.18h-11.61v-12.73h12.36l-6.25-1.8c-12.21-7.22-5.25-22.16,7.93-22.16h24.9Z"/>
          <path d="M443.18,22.84v14.6h-13.67c-2.54,0-6.65,2.07-8.25,4.11-1.13,1.44-2.43,5.17-2.43,6.93v32.39h-15.35V23.21h15.35v17.6l2.73-7.94c1.75-4.05,8.33-10.03,12.81-10.03h8.8Z"/>
          <path d="M439.43,111.44v14.6h-13.67c-2.54,0-6.65,2.07-8.25,4.11-1.13,1.44-2.43,5.17-2.43,6.93v32.39h-15.35v-57.66h15.35v17.6l2.73-7.94c1.75-4.05,8.33-10.03,12.81-10.03h8.8Z"/>
          <rect x="507.58" y=".75" width="15.35" height="13.85"/>
          <rect x="527.42" y=".75" width="15.35" height="13.85"/>
        </g>
      </g>
    </g>
  </g>
</svg>